<?xml version="1.0" encoding="UTF-8" standalone="no"?>
<!-- Generator: Adobe Illustrator 24.0.3, SVG Export Plug-In . SVG Version: 6.00 Build 0)  -->

<svg
   version="1.1"
   id="Shield"
   x="0px"
   y="0px"
   viewBox="0 0 390 462"
   xml:space="preserve"
   sodipodi:docname="bitwarden.svg"
   width="390"
   height="462"
   xmlns:inkscape="http://www.inkscape.org/namespaces/inkscape"
   xmlns:sodipodi="http://sodipodi.sourceforge.net/DTD/sodipodi-0.dtd"
   xmlns="http://www.w3.org/2000/svg"
   xmlns:svg="http://www.w3.org/2000/svg"><defs
   id="defs8" /><sodipodi:namedview
   id="namedview6"
   pagecolor="#ffffff"
   bordercolor="#000000"
   borderopacity="0.25"
   inkscape:showpageshadow="2"
   inkscape:pageopacity="0.0"
   inkscape:pagecheckerboard="true"
   inkscape:deskcolor="#d1d1d1"
   showgrid="false" />
<style
   type="text/css"
   id="style2">
	.st0{fill:#FFFFFF;}
</style>
<path
   id="Identity"
   class="st0"
   d="M 368.4,5.6 C 364.7,1.9 360.3,0 355.3,0 H 18.7 C 13.6,0 9.3,1.9 5.6,5.6 1.9,9.3 0,13.6 0,18.7 v 224.4 c 0,16.7 3.3,33.4 9.8,49.8 6.5,16.5 14.6,31.1 24.3,43.8 9.6,12.8 21.1,25.2 34.5,37.2 13.3,12.1 25.7,22.1 37,30.1 11.3,8 23.1,15.5 35.4,22.6 12.3,7.1 21,11.9 26.2,14.5 5.2,2.5 9.3,4.5 12.4,5.8 2.3,1.2 4.9,1.8 7.6,1.8 2.7,0 5.3,-0.6 7.6,-1.8 3.1,-1.4 7.3,-3.3 12.4,-5.8 5.2,-2.5 13.9,-7.4 26.2,-14.5 12.3,-7.1 24.1,-14.7 35.4,-22.6 11.3,-8 23.6,-18 37,-30.1 13.3,-12.1 24.8,-24.5 34.5,-37.2 9.6,-12.8 17.7,-27.4 24.2,-43.8 6.5,-16.5 9.8,-33.1 9.8,-49.8 V 18.7 C 374,13.6 372.1,9.3 368.4,5.6 Z M 325,245.2 c 0,81.2 -138,151.2 -138,151.2 V 48 h 138 c 0,0 0,116 0,197.2 z" />
</svg>
